:SAMPLES-PER-SECOND 30
:FULLY-SPECIFIED
:DEGREES
489
root  -54.4451 34.4554 26.4221 150.021 82.6863 141.405
RightUpLeg  -30.2937 -22.6938 -8.62128
RightLeg  51.9744 0.37456 0.365005
RightFoot  -4.16749 -0.0130121 0.195744
RightToes  -35.3467 -0.182419 -0.287357
Spine  0.183969 0.907786 2.97182
Spine1  0.463173 1.9821 6.56361
HEad  -59.3267 17.1562 -1.38844
LeftShoulder1  -1.94126e-019 -3.10601e-018 -2.51263e-017
LeftArm  9.23689 19.6418 -78.9286
LeftForeArm  29.9019 -38.8939 -7.1452
LeftHand  -0.452566 -2.37948 6.97174
RightShoulder  -4.96962e-017 0 -2.36833e-017
RightArm  -8.55826 -7.28893 75.2233
RightForeArm  46.9334 23.2333 2.55145
RightHand  -0.280411 -1.64433 -8.52542
LeftUpLeg  -17.2055 3.10201 -2.42268
LeftLeg  17.556 11.2528 2.75696
LeftFoot  5.96147 -0.0554081 1.40192
LeftToes  -26.699 2.32378e-006 -5.43956e-008
490
root  -54.0888 34.3515 27.0805 144.72 83.6505 135.135
RightUpLeg  -28.7334 -18.9708 -10.8535
RightLeg  42.7056 -3.26458 -2.67128
RightFoot  -5.83816 0.00565545 0.686859
RightToes  -26.9098 -0.123231 -0.229925
Spine  -0.147205 0.572009 2.80792
Spine1  -0.222365 1.34531 6.21231
HEad  -60.2708 19.396 -1.42303
LeftShoulder1  -1.94126e-019 -3.10601e-018 -2.51263e-017
LeftArm  8.88506 18.6533 -78.6543
LeftForeArm  31.5565 -41.3823 -7.78779
LeftHand  -0.421576 -2.02152 6.79596
RightShoulder  -4.96962e-017 0 -2.36833e-017
RightArm  -12.3241 -8.50795 74.2373
RightForeArm  46.9747 23.7703 2.65184
RightHand  -0.293356 -1.497 -8.60903
LeftUpLeg  -18.1023 4.31342 -1.33776
LeftLeg  18.7428 11.1461 2.97508
LeftFoot  5.28829 -0.0460587 1.25489
LeftToes  -28.6879 2.32378e-006 -5.43956e-008
491
root  -53.6602 34.1477 27.8398 144.002 84.2971 134.182
RightUpLeg  -25.0644 -16.6377 -12.5849
RightLeg  30.6475 -6.53411 -3.32226
RightFoot  -4.0718 0.00661735 0.786174
RightToes  -22.0295 -0.0930592 -0.192937
Spine  -0.155869 0.216558 2.72953
Spine1  -0.263996 0.65733 6.01608
HEad  -62.7926 21.9724 -2.5535
LeftShoulder1  -1.94126e-019 -3.10601e-018 -2.51263e-017
LeftArm  3.67461 18.3127 -79.2959
LeftForeArm  32.1836 -43.4991 -8.42581
LeftHand  -0.507163 -3.72998 6.7175
RightShoulder  -4.96962e-017 0 -2.36833e-017
RightArm  -15.4494 -9.81237 73.1298
RightForeArm  46.446 23.9473 2.70391
RightHand  -0.303846 -1.63696 -9.24134
LeftUpLeg  -19.519 5.46011 0.277424
LeftLeg  22.3652 10.5744 3.54779
LeftFoot  4.07848 -0.0289591 0.974848
LeftToes  -30.7752 2.32378e-006 -5.43956e-008
492
root  -53.2661 33.8251 28.6823 146.553 84.7014 136.905
RightUpLeg  -22.7876 -18.9934 -12.6935
RightLeg  23.7353 -2.4264 -0.889473
RightFoot  7.40717 0.0420709 -0.106796
RightToes  -42.3732 -0.237714 -0.328132
Spine  -0.0295893 0.008442 2.73229
Spine1  -0.0433475 0.247274 5.98037
HEad  -67.0469 24.1452 -4.77564
LeftShoulder1  -1.94126e-019 -3.10601e-018 -2.51263e-017
LeftArm  -6.83436 18.2209 -82.1125
LeftForeArm  26.8763 -43.5595 -8.79242
LeftHand  -0.560438 -3.39353 7.65604
RightShoulder  -4.96962e-017 0 -2.36833e-017
RightArm  -17.9383 -11.5445 71.7272
RightForeArm  44.9201 23.8876 2.75395
RightHand  -0.278165 -2.28846 -10.1291
LeftUpLeg  -21.2269 6.42214 2.19498
LeftLeg  27.1129 9.57441 4.11897
LeftFoot  2.63297 -0.0111299 0.645858
LeftToes  -32.9431 2.32378e-006 -5.43956e-008
493
root  -52.9606 33.4341 29.6019 148.387 86.0115 138.698
RightUpLeg  -27.1186 -23.1625 -9.58314
RightLeg  32.1938 1.98455 1.06521
RightFoot  1.29702 0.00214812 0.279832
RightToes  -38.9455 -0.210115 -0.309089
Spine  0.323898 0.316743 2.83855
Spine1  0.652503 0.880035 6.09597
HEad  -72.8795 25.462 -7.35177
LeftShoulder1  -1.94126e-019 -3.10601e-018 -2.51263e-017
LeftArm  -18.9394 17.9197 -86.1532
LeftForeArm  18.53 -43.3033 -9.26763
LeftHand  -0.611566 -2.28581 9.4524
RightShoulder  -4.96962e-017 0 -2.36833e-017
RightArm  -20.0325 -12.6689 70.3776
RightForeArm  41.8874 22.5818 2.63269
RightHand  -0.218471 -3.04127 -10.2769
LeftUpLeg  -23.0261 7.24929 4.7232
LeftLeg  31.7403 9.4944 5.01986
LeftFoot  1.0879 -0.00180669 0.351865
LeftToes  -33.9962 2.32378e-006 -5.43956e-008
494
root  -52.7435 33.2184 30.4979 72.642 88.468 61.9401
RightUpLeg  -31.5124 -24.1597 -5.5066
RightLeg  36.2813 4.91794 3.12061
RightFoot  -0.180296 -0.00110172 0.210259
RightToes  -33.617 -0.169605 -0.276302
Spine  0.674296 1.39738 3.06018
Spine1  1.40863 3.09481 6.35497
HEad  -77.928 26.9678 -9.81019
LeftShoulder1  -1.94126e-019 -3.10601e-018 -2.51263e-017
LeftArm  -25.0234 18.2601 -89.4066
LeftForeArm  15.9546 -43.3222 -9.44724
LeftHand  -0.665708 -0.0609707 14.249
RightShoulder  -4.96962e-017 0 -2.36833e-017
RightArm  -19.9918 -12.1969 68.7975
RightForeArm  39.2359 19.5382 2.18099
RightHand  -0.188541 -3.45264 -10.5773
LeftUpLeg  -23.9397 9.40796 7.16645
LeftLeg  34.2098 10.8473 6.32743
LeftFoot  0.698251 -0.000684344 0.273888
LeftToes  -34.4899 2.32378e-006 -5.43956e-008
